<svg xmlns="http://www.w3.org/2000/svg" viewBox="0 0 864.36 560.22"><defs><style>.cls-1{fill:#eef0f2;}.cls-2,.cls-3{fill:#dc2c39;}.cls-2,.cls-5{stroke:#1d1d1b;stroke-linecap:round;stroke-miterlimit:10;stroke-width:10px;}.cls-4{fill:#1d1d1b;}.cls-5{fill:none;}</style></defs><g id="Layer_3" data-name="Layer 3"><ellipse class="cls-1" cx="252.52" cy="341.25" rx="171.8" ry="179.57"/></g><g id="Layer_2" data-name="Layer 2"><path class="cls-2" d="M331.85,375.07s8.38-78.28-58.25-104.38-135.12-35.41-135.12-35.41L165,265.1l-45.25,20,35.46,31.22-42.87,29.82,47.89,17.7-31.11,48s122,11.18,152.55,0S325.79,386.25,331.85,375.07Z" transform="translate(-79.82 -228.5)"/><path class="cls-2" d="M332.92,375.07s-8.38-78.28,58.25-104.38,135.12-35.41,135.12-35.41L499.73,265.1l45.25,20-35.46,31.22,42.86,29.82-47.88,17.7,31.11,48s-122,11.18-152.55,0S339,386.25,332.92,375.07Z" transform="translate(-79.82 -228.5)"/></g><g id="Layer_1" data-name="Layer 1"><path class="cls-3" d="M79.82,754.09a31.54,31.54,0,0,1,2.56-12.73,32.21,32.21,0,0,1,7-10.26,34.74,34.74,0,0,1,37-6.94A34.84,34.84,0,0,1,137,731.1a31.48,31.48,0,0,1,9.69,23,32.19,32.19,0,0,1-2.57,12.82A31.16,31.16,0,0,1,137,777.27a33.5,33.5,0,0,1-10.64,6.84,34.68,34.68,0,0,1-13.11,2.47,35.1,35.1,0,0,1-13.3-2.47,32.34,32.34,0,0,1-10.55-6.84,32.28,32.28,0,0,1-9.59-23.18Z" transform="translate(-79.82 -228.5)"/><path class="cls-4" d="M555.5,565.22q0,47.4-16.36,88.2a212.71,212.71,0,0,1-46,71q-29.72,30.15-71.56,47.25t-92.84,17.1q-51,0-93-17.1t-71.85-47.25a211.3,211.3,0,0,1-46.21-71q-16.35-40.8-16.34-88.2T117.64,477a209.68,209.68,0,0,1,46.21-70.8q29.84-30,71.85-47.1t93-17.1q51,0,92.84,17.25t71.56,47.25a211.06,211.06,0,0,1,46,70.8Q555.49,518.12,555.5,565.22Zm-103.81,0q0-32.4-8.4-58.35t-24.15-43.95a104.2,104.2,0,0,0-38.54-27.6q-22.82-9.6-51.9-9.6-29.42,0-52.35,9.6a103.84,103.84,0,0,0-38.71,27.6q-15.75,18-24.14,43.95t-8.4,58.35q0,32.7,8.4,58.65t24.14,44a102.39,102.39,0,0,0,38.71,27.45q22.93,9.45,52.35,9.45,29.08,0,51.9-9.45a102.72,102.72,0,0,0,38.54-27.45q15.75-18,24.15-44T451.69,565.22Z" transform="translate(-79.82 -228.5)"/><path class="cls-4" d="M570.89,783.92v-197h36.48a16.22,16.22,0,0,1,9.21,2.47,13.25,13.25,0,0,1,5.23,7.41l3.42,11.4A141.35,141.35,0,0,1,637,598.29a69,69,0,0,1,13-7.7,77.93,77.93,0,0,1,15-4.94,80.74,80.74,0,0,1,17.58-1.8q16.14,0,28.59,5.6a59.37,59.37,0,0,1,21,15.58,67.38,67.38,0,0,1,12.92,23.75,98.64,98.64,0,0,1,4.37,29.93V783.92h-58.9V658.71q0-14.44-6.65-22.52t-19.57-8.07a40.94,40.94,0,0,0-18.24,4.18,70.85,70.85,0,0,0-16.34,11.21V783.92Z" transform="translate(-79.82 -228.5)"/><path class="cls-4" d="M855.64,583.85a101.54,101.54,0,0,1,35.82,6.08,77.77,77.77,0,0,1,27.93,17.67A80.66,80.66,0,0,1,937.63,636q6.55,16.82,6.55,38.1a83.23,83.23,0,0,1-.57,10.83,17.2,17.2,0,0,1-2.09,6.65,7.9,7.9,0,0,1-4.08,3.42,19.25,19.25,0,0,1-6.56,1H817.26q2.85,24.7,15,35.81t31.35,11.12a56,56,0,0,0,17.67-2.47,89.51,89.51,0,0,0,13.21-5.51q5.79-3,10.64-5.51a22,22,0,0,1,10.16-2.47q7,0,10.64,5.13L943,753.14a87.42,87.42,0,0,1-19.66,17,102.19,102.19,0,0,1-21.66,10.26,117.41,117.41,0,0,1-22.23,5.13A167,167,0,0,1,858.3,787a110.48,110.48,0,0,1-38.85-6.75,89,89,0,0,1-31.73-20q-13.59-13.3-21.47-33.06t-7.89-46a104,104,0,0,1,6.75-37.43,90.93,90.93,0,0,1,50-52.06Q833,583.86,855.64,583.85Zm1.14,40.66q-16.9,0-26.41,9.59t-12.54,27.65h73.53a52.09,52.09,0,0,0-1.8-13.68,33.43,33.43,0,0,0-5.89-11.88,30.06,30.06,0,0,0-10.74-8.45A36.76,36.76,0,0,0,856.78,624.51Z" transform="translate(-79.82 -228.5)"/><path class="cls-3" d="M313.4,496h-60v30h0c0,.26,0,.51,0,.77a30,30,0,0,0,60,0c0-.26,0-.51,0-.77h0Z" transform="translate(-79.82 -228.5)"/><path class="cls-3" d="M403.4,496h-60v30h0c0,.26,0,.51,0,.77a30,30,0,0,0,60,0c0-.26,0-.51,0-.77h0Z" transform="translate(-79.82 -228.5)"/><line class="cls-5" x1="223.58" y1="406.2" x2="273.58" y2="406.2"/><line class="cls-5" x1="168.58" y1="267.53" x2="238.58" y2="267.53"/><line class="cls-5" x1="258.58" y1="267.53" x2="328.58" y2="267.53"/></g></svg>