<svg xmlns="http://www.w3.org/2000/svg" viewBox="0 0 934.36 553.44"><defs><style>.cls-1{fill:#eef0f2;}.cls-2{fill:#dc2c39;}.cls-3{fill:none;stroke:#1d1d1b;stroke-linecap:round;stroke-miterlimit:10;stroke-width:10px;}</style></defs><g id="Layer_3" data-name="Layer 3"><ellipse class="cls-1" cx="280.45" cy="334.47" rx="171.8" ry="179.57"/></g><g id="Layer_1" data-name="Layer 1"><path class="cls-2" d="M49.82,724.09a31.54,31.54,0,0,1,2.56-12.73,32.21,32.21,0,0,1,7-10.26,34.74,34.74,0,0,1,37-6.94A34.84,34.84,0,0,1,107,701.1a31.48,31.48,0,0,1,9.69,23,32.19,32.19,0,0,1-2.57,12.82A31.16,31.16,0,0,1,107,747.27a33.5,33.5,0,0,1-10.64,6.84,34.68,34.68,0,0,1-13.11,2.47A35.1,35.1,0,0,1,70,754.11a32.34,32.34,0,0,1-10.55-6.84,32.28,32.28,0,0,1-9.59-23.18Z" transform="translate(-49.82 -235.28)"/><path class="cls-2" d="M539.14,477.32a212.21,212.21,0,0,0-38.55-62.81c20.39-1.29,35-2.63,35-2.63l-31.11-48,47.88-17.7-42.86-29.82L545,285.14l-45.25-20,26.56-29.82s-68.49,9.32-135.12,35.41c-38,14.89-51.61,46.76-56.28,71.39-1.66,0-3.34,0-5-.05-4.68-24.62-18.28-56.46-56.27-71.34C207,244.6,138.48,235.28,138.48,235.28L165,265.1l-45.25,20,35.46,31.22-42.87,29.82,47.89,17.7-31.11,48s11.05,1,27.33,2.12a211.11,211.11,0,0,0-38.85,63q-16.35,40.8-16.34,88.2t16.34,88.2a211.3,211.3,0,0,0,46.21,71q29.84,30.15,71.85,47.25t93,17.1q51,0,92.84-17.1t71.56-47.25a212.71,212.71,0,0,0,46-71q16.35-40.8,16.36-88.2Q555.5,518.12,539.14,477.32ZM453.29,623.87c-5.6,17.3-14.65,31-25.15,43S400.79,689,385.6,695.27s-37.51,9.45-56.9,9.45c-19.61,0-42.06-3.15-57.35-9.45s-32.21-16.45-42.71-28.45-19.55-25.65-25.14-43-8.4-36.85-8.4-58.65q0-32.4,8.4-58.35t24.14-43.95c10.5-12,28.4-21.2,43.71-27.6s37.74-9.6,57.35-9.6c19.39,0,41.69,3.2,56.9,9.6s33,15.6,43.54,27.6,18.55,26.65,24.15,43.95,8.4,36.75,8.4,58.35Q461.69,597.92,453.29,623.87Z" transform="translate(-49.82 -235.28)"/><path class="cls-2" d="M590.89,753.92v-197h36.48a16.22,16.22,0,0,1,9.21,2.47,13.25,13.25,0,0,1,5.23,7.41l3.42,11.4A141.35,141.35,0,0,1,657,568.29a69,69,0,0,1,13-7.7,77.93,77.93,0,0,1,15-4.94,80.74,80.74,0,0,1,17.58-1.8q16.14,0,28.59,5.6a59.37,59.37,0,0,1,21,15.58,67.38,67.38,0,0,1,12.92,23.75,98.64,98.64,0,0,1,4.37,29.93V753.92h-58.9V628.71q0-14.44-6.65-22.52t-19.57-8.07a40.94,40.94,0,0,0-18.24,4.18,70.85,70.85,0,0,0-16.34,11.21V753.92Z" transform="translate(-49.82 -235.28)"/><path class="cls-2" d="M895.64,553.85a101.54,101.54,0,0,1,35.82,6.08,77.77,77.77,0,0,1,27.93,17.67A80.66,80.66,0,0,1,977.63,606q6.55,16.82,6.55,38.1a83.23,83.23,0,0,1-.57,10.83,17.2,17.2,0,0,1-2.09,6.65,7.9,7.9,0,0,1-4.08,3.42,19.25,19.25,0,0,1-6.56,1H857.26q2.85,24.7,15,35.81t31.35,11.12a56,56,0,0,0,17.67-2.47,89.51,89.51,0,0,0,13.21-5.51q5.79-3,10.64-5.51a22,22,0,0,1,10.16-2.47q7,0,10.64,5.13L983,723.14a87.42,87.42,0,0,1-19.66,17,102.19,102.19,0,0,1-21.66,10.26,117.41,117.41,0,0,1-22.23,5.13A167,167,0,0,1,898.3,757a110.48,110.48,0,0,1-38.85-6.75,89,89,0,0,1-31.73-20q-13.59-13.3-21.47-33.06t-7.89-46a104,104,0,0,1,6.75-37.43,90.93,90.93,0,0,1,50-52.06Q873,553.86,895.64,553.85Zm1.14,40.66q-16.9,0-26.41,9.59t-12.54,27.65h73.53a52.09,52.09,0,0,0-1.8-13.68,33.43,33.43,0,0,0-5.89-11.88,30.06,30.06,0,0,0-10.74-8.45A36.76,36.76,0,0,0,896.78,594.51Z" transform="translate(-49.82 -235.28)"/><path class="cls-2" d="M305.27,500.41h-60v30h0c0,.26,0,.51,0,.77a30,30,0,0,0,60,0c0-.26,0-.51,0-.77h0Z" transform="translate(-49.82 -235.28)"/><path class="cls-2" d="M415.27,500.41h-60v30h0c0,.26,0,.51,0,.77a30,30,0,0,0,60,0c0-.26,0-.51,0-.77h0Z" transform="translate(-49.82 -235.28)"/><line class="cls-3" x1="255.45" y1="403.81" x2="305.45" y2="403.81"/><line class="cls-3" x1="190.45" y1="265.13" x2="260.45" y2="265.13"/><line class="cls-3" x1="300.45" y1="265.13" x2="370.45" y2="265.13"/></g></svg>